<?xml version="1.0" encoding="utf-8"?>
<!-- Generator: Adobe Illustrator 25.2.1, SVG Export Plug-In . SVG Version: 6.00 Build 0)  -->
<svg version="1.1" id="Layer_1" xmlns="http://www.w3.org/2000/svg" xmlns:xlink="http://www.w3.org/1999/xlink" x="0px" y="0px"
	 viewBox="0 0 41.6 43.2" style="enable-background:new 0 0 41.6 43.2;" xml:space="preserve">
<style type="text/css">
	.st0{fill:#1AA7EC;}
	.st1{fill:#00D19F;}
</style>
<path class="st0" d="M22.9,10.9c-5.9-0.7-11.3,3.6-12,9.5c0,0.4-0.1,0.8-0.1,1.2c0,0.1,0,0.2,0,0.3v16.7c0,1.1,0.6,2.1,1.6,2.5h0.1
	c1.4,0.7,3.2,0.1,3.8-1.4c0.2-0.4,0.3-0.8,0.3-1.2v-7.4c5.3,2.9,11.8,0.9,14.7-4.3s0.9-11.8-4.3-14.7C25.7,11.5,24.3,11.1,22.9,10.9
	L22.9,10.9z M21.4,26.7c-2.5-0.2-4.6-2.2-4.7-4.7l0,0c0-0.1,0-0.2,0-0.3c0-2.8,2.3-5.1,5.1-5s5.1,2.3,5,5.1
	C26.6,24.6,24.2,26.8,21.4,26.7z"/>
<path class="st1" d="M21.6,40.2L21.6,40.2c0,1.6,1.3,2.9,3,2.9c0.2,0,0.3,0,0.5,0c7.1-1.1,13.2-5.7,16.3-12.2
	c0.7-1.4,0.1-3.2-1.4-3.9c-0.4-0.2-0.8-0.3-1.2-0.3l0,0c-1.1,0-2.1,0.6-2.5,1.6c-2.3,4.8-6.8,8.2-12,9
	C22.6,37.5,21.6,38.8,21.6,40.2z"/>
<path class="st1" d="M19.8,0.1C7.9,1.1-0.9,11.5,0.1,23.5c0.4,4.9,2.5,9.4,5.8,13V23.3c-0.2-1.7-0.1-3.3,0.2-5
	C7.9,9.8,16.4,4.3,24.9,6.1c4.9,1,9.1,4.4,11.2,8.9c0.5,1,1.5,1.6,2.6,1.6l0,0c1.6,0,2.9-1.3,2.9-2.9c0-0.4-0.1-0.7-0.2-1.1
	C37.6,4.4,29-0.7,19.8,0.1z"/>
</svg>
